<?xml version="1.0" encoding="utf-8"?>
<!-- Generator: Adobe Illustrator 23.0.3, SVG Export Plug-In . SVG Version: 6.00 Build 0)  -->
<svg version="1.1" id="Layer_1" xmlns="http://www.w3.org/2000/svg" xmlns:xlink="http://www.w3.org/1999/xlink" x="0px" y="0px"
	 viewBox="0 0 55 14" style="enable-background:new 0 0 55 14;" xml:space="preserve">
<path d="M45.4,1.6l-1,0.8c-0.1,0.1-0.2,0.3-0.1,0.5l2.1,2.6c0.2,0.2,0,0.5-0.3,0.5H5.2C5.1,6,4.9,6.2,4.9,6.3v1.3
	C4.9,7.8,5.1,8,5.2,8h40.9c0.3,0,0.4,0.3,0.3,0.5l-2.1,2.6c-0.1,0.1-0.1,0.4,0.1,0.5l1,0.8c0.1,0.1,0.4,0.1,0.5-0.1L50,7.2
	c0.1-0.1,0.1-0.3,0-0.4l-4.1-5.2C45.8,1.5,45.6,1.5,45.4,1.6z"/>
</svg>
