<?xml version="1.0" encoding="utf-8"?>
<!-- Generator: Adobe Illustrator 23.0.3, SVG Export Plug-In . SVG Version: 6.00 Build 0)  -->
<svg version="1.1" id="Layer_1" xmlns="http://www.w3.org/2000/svg" xmlns:xlink="http://www.w3.org/1999/xlink" x="0px" y="0px"
	 viewBox="0 0 200 200" style="enable-background:new 0 0 200 200;" xml:space="preserve">
<style type="text/css">
	.st0{fill:#FFFFFF;}
	.st1{fill:#CCCCCC;}
	.st2{fill:#808080;}
</style>
<g>
	<circle class="st0" cx="100" cy="100" r="88.5"/>
	<path class="st1" d="M100,13c48,0,87,39,87,87s-39,87-87,87s-87-39-87-87S52,13,100,13 M100,10c-49.7,0-90,40.3-90,90
		s40.3,90,90,90s90-40.3,90-90S149.7,10,100,10L100,10z"/>
</g>
<path class="st1" d="M124.9,87H75.1c-3.2,0-5.8-2.6-5.8-5.8V46.8c0-3.2,2.6-5.8,5.8-5.8h49.8c3.2,0,5.8,2.6,5.8,5.8v34.5
	C130.7,84.4,128.1,87,124.9,87z M82.8,47.7c-3.7,0-6.7,3-6.7,6.7c0,3.7,3,6.7,6.7,6.7s6.7-3,6.7-6.7C89.5,50.7,86.5,47.7,82.8,47.7z
	 M77,79.3h46V65.9l-10.5-10.5c-0.6-0.6-1.5-0.6-2,0L94.3,71.7L87.6,65c-0.6-0.6-1.5-0.6-2,0L77,73.6V79.3z"/>
<g>
	<path class="st2" d="M64.5,118.3h-1.4L55.7,107v11.4h-1.4v-13.6h1.4l7.4,11.4v-11.4h1.4V118.3z"/>
	<path class="st2" d="M77,105.5c1,0.6,1.8,1.4,2.4,2.5c0.6,1.1,0.9,2.3,0.9,3.6c0,1.3-0.3,2.5-0.9,3.6c-0.6,1.1-1.4,1.9-2.4,2.5
		c-1,0.6-2.1,0.9-3.4,0.9c-1.3,0-2.4-0.3-3.4-0.9s-1.8-1.4-2.4-2.5c-0.6-1.1-0.9-2.3-0.9-3.6c0-1.3,0.3-2.5,0.9-3.6
		c0.6-1.1,1.4-1.9,2.4-2.5s2.1-0.9,3.4-0.9C74.8,104.6,76,104.9,77,105.5z M70.9,106.5c-0.8,0.5-1.4,1.1-1.9,2
		c-0.5,0.9-0.7,1.9-0.7,3c0,1.1,0.2,2.1,0.7,3c0.5,0.9,1.1,1.5,1.9,2c0.8,0.5,1.7,0.7,2.7,0.7c1,0,1.9-0.2,2.7-0.7
		c0.8-0.5,1.4-1.1,1.9-2c0.5-0.9,0.7-1.9,0.7-3c0-1.1-0.2-2.1-0.7-3c-0.5-0.9-1.1-1.5-1.9-2c-0.8-0.5-1.7-0.7-2.7-0.7
		C72.6,105.8,71.7,106.1,70.9,106.5z"/>
	<path class="st2" d="M89.1,104.7v13.6h-1.4v-13.6H89.1z"/>
	<path class="st2" d="M105.2,105v13.3h-1.4v-11.2l-4.6,11.2H98l-4.6-11.1v11.1H92V105h1.6l5,11.6l5-11.6H105.2z"/>
	<path class="st2" d="M116,115h-6.2l-1.2,3.3h-1.4l5-13.3h1.5l5,13.3h-1.5L116,115z M115.6,113.9l-2.7-7.3l-2.7,7.3H115.6z"/>
	<path class="st2" d="M130.6,105.8c1.1,0.8,1.8,1.8,2.2,3.1h-1.4c-0.3-0.9-0.9-1.7-1.8-2.2c-0.8-0.6-1.8-0.8-2.9-0.8
		c-1,0-1.9,0.2-2.7,0.7c-0.8,0.5-1.4,1.1-1.9,2s-0.7,1.9-0.7,3c0,1.2,0.2,2.2,0.7,3s1.1,1.5,1.9,2c0.8,0.5,1.7,0.7,2.8,0.7
		c0.9,0,1.8-0.2,2.5-0.6c0.8-0.4,1.4-1,1.8-1.8c0.5-0.8,0.7-1.7,0.8-2.7h-5.7v-1h6.8v1.2c-0.1,1.2-0.4,2.2-1,3.1
		c-0.6,0.9-1.3,1.7-2.3,2.2c-0.9,0.5-2,0.8-3.2,0.8c-1.3,0-2.4-0.3-3.4-0.9c-1-0.6-1.8-1.4-2.3-2.5c-0.6-1.1-0.8-2.3-0.8-3.6
		c0-1.3,0.3-2.5,0.8-3.6c0.6-1.1,1.3-1.9,2.3-2.5c1-0.6,2.1-0.9,3.4-0.9C128.2,104.6,129.5,105,130.6,105.8z"/>
	<path class="st2" d="M137,105.8v5.1h5.3v1.1H137v5.2h5.9v1.1h-7.3v-13.6h7.3v1.1H137z"/>
	<path class="st2" d="M64.3,138.2h-6.2l-1.2,3.3h-1.4l5-13.3H62l5,13.3h-1.5L64.3,138.2z M63.9,137.1l-2.7-7.3l-2.7,7.3H63.9z"/>
	<path class="st2" d="M69.4,127.9l4.4,12l4.4-12h1.5l-5.1,13.6h-1.7l-5-13.6H69.4z"/>
	<path class="st2" d="M89.4,138.2h-6.2l-1.2,3.3h-1.4l5-13.3h1.5l5,13.3h-1.5L89.4,138.2z M89,137.1l-2.7-7.3l-2.7,7.3H89z"/>
	<path class="st2" d="M95.4,127.9v13.6H94v-13.6H95.4z"/>
	<path class="st2" d="M99.7,140.4h4.9v1.1h-6.3v-13.6h1.4V140.4z"/>
	<path class="st2" d="M114.3,138.2h-6.2l-1.2,3.3h-1.4l5-13.3h1.5l5,13.3h-1.5L114.3,138.2z M113.9,137.1l-2.7-7.3l-2.7,7.3H113.9z"
		/>
	<path class="st2" d="M127.2,135.6c0.5,0.6,0.8,1.4,0.8,2.2c0,1.1-0.4,2-1.1,2.7c-0.7,0.7-1.8,1-3.2,1h-4.7v-13.6h4.7
		c1.4,0,2.4,0.3,3.1,0.9c0.7,0.6,1,1.4,1,2.5c0,0.9-0.2,1.6-0.7,2.1c-0.5,0.5-1.1,0.9-1.8,1.1C126,134.6,126.7,135,127.2,135.6z
		 M120.3,134h3.1c1,0,1.7-0.2,2.2-0.7c0.5-0.4,0.7-1.1,0.7-1.8c0-0.8-0.2-1.4-0.7-1.8s-1.2-0.7-2.3-0.7h-3V134z M125.8,139.6
		c0.6-0.5,0.8-1.1,0.8-2c0-0.8-0.3-1.5-0.9-2s-1.4-0.7-2.4-0.7h-3.1v5.3h3.1C124.4,140.3,125.2,140.1,125.8,139.6z"/>
	<path class="st2" d="M131.7,140.4h4.9v1.1h-6.3v-13.6h1.4V140.4z"/>
	<path class="st2" d="M139.8,129v5.1h5.3v1.1h-5.3v5.2h5.9v1.1h-7.3v-13.6h7.3v1.1H139.8z"/>
</g>
</svg>
